<svg width="48" height="48" viewBox="0 0 48 48" fill="none" xmlns="http://www.w3.org/2000/svg">
<g clip-path="url(#clip0)">
<path d="M31 12V20C31 19.4696 30.7893 18.9609 30.4142 18.5858C30.0391 18.2107 29.5304 18 29 18H7C6.46957 18 5.96086 18.2107 5.58579 18.5858C5.21071 18.9609 5 19.4696 5 20V12C5 12.5304 5.21071 13.0391 5.58579 13.4142C5.96086 13.7893 6.46957 14 7 14H29C29.5304 14 30.0391 13.7893 30.4142 13.4142C30.7893 13.0391 31 12.5304 31 12Z" fill="#C52127"/>
<path d="M31 24V32C31 31.4696 30.7893 30.9609 30.4142 30.5858C30.0391 30.2107 29.5304 30 29 30H7C6.46957 30 5.96086 30.2107 5.58579 30.5858C5.21071 30.9609 5 31.4696 5 32V24C5 24.5304 5.21071 25.0391 5.58579 25.4142C5.96086 25.7893 6.46957 26 7 26H29C29.5304 26 30.0391 25.7893 30.4142 25.4142C30.7893 25.0391 31 24.5304 31 24Z" fill="#C52127"/>
<path d="M9 47H4V43H10L9 47Z" fill="#BFBFBF"/>
<path d="M27 47H32V43H26L27 47Z" fill="#BFBFBF"/>
<path d="M43 40L35 38V6L43 4V40Z" fill="#C52127"/>
<path d="M45 16H44V4C44.0045 3.8458 43.9733 3.69265 43.9088 3.55253C43.8443 3.4124 43.7483 3.28909 43.6282 3.19225C43.5081 3.09542 43.3672 3.02767 43.2166 2.99432C43.066 2.96097 42.9097 2.96291 42.76 3L36 4.72V4C36 2.93913 35.5786 1.92172 34.8284 1.17157C34.0783 0.421427 33.0609 0 32 0L4 0C2.93913 0 1.92172 0.421427 1.17157 1.17157C0.421427 1.92172 0 2.93913 0 4L0 40C0.00287235 40.8846 0.298871 41.7432 0.841689 42.4416C1.38451 43.1401 2.14352 43.6389 3 43.86V47C3 47.2652 3.10536 47.5196 3.29289 47.7071C3.48043 47.8946 3.73478 48 4 48H9C9.22843 48.0067 9.45226 47.9349 9.63421 47.7966C9.81615 47.6583 9.94525 47.4619 10 47.24L10.78 44H25.22L26 47.24C26.0548 47.4619 26.1838 47.6583 26.3658 47.7966C26.5477 47.9349 26.7716 48.0067 27 48H32C32.2652 48 32.5196 47.8946 32.7071 47.7071C32.8946 47.5196 33 47.2652 33 47V43.86C33.8565 43.6389 34.6155 43.1401 35.1583 42.4416C35.7011 41.7432 35.9971 40.8846 36 40V39.28C43.2 41.08 42.82 41 43 41C43.2652 41 43.5196 40.8946 43.7071 40.7071C43.8946 40.5196 44 40.2652 44 40V28H45C45.7957 28 46.5587 27.6839 47.1213 27.1213C47.6839 26.5587 48 25.7956 48 25V19C48 18.2044 47.6839 17.4413 47.1213 16.8787C46.5587 16.3161 45.7957 16 45 16ZM8.22 46H5V44H8.72L8.22 46ZM31 46H27.78L27.28 44H31V46ZM34 40C34 40.5304 33.7893 41.0391 33.4142 41.4142C33.0391 41.7893 32.5304 42 32 42H4C3.46957 42 2.96086 41.7893 2.58579 41.4142C2.21071 41.0391 2 40.5304 2 40V4C2 3.46957 2.21071 2.96086 2.58579 2.58579C2.96086 2.21071 3.46957 2 4 2H32C32.5304 2 33.0391 2.21071 33.4142 2.58579C33.7893 2.96086 34 3.46957 34 4V40ZM42 38.72L36 37.22V6.78L42 5.28V38.72ZM46 25C46 25.2652 45.8946 25.5196 45.7071 25.7071C45.5196 25.8946 45.2652 26 45 26H44V18H45C45.2652 18 45.5196 18.1054 45.7071 18.2929C45.8946 18.4804 46 18.7348 46 19V25Z" fill="#424242"/>
<path d="M9 11C9.55228 11 10 10.5523 10 10C10 9.44772 9.55228 9 9 9C8.44772 9 8 9.44772 8 10C8 10.5523 8.44772 11 9 11Z" fill="#FC6459"/>
<path d="M13 11C13.5523 11 14 10.5523 14 10C14 9.44772 13.5523 9 13 9C12.4477 9 12 9.44772 12 10C12 10.5523 12.4477 11 13 11Z" fill="#FC6459"/>
<path d="M27 9H19C18.7348 9 18.4804 9.10536 18.2929 9.29289C18.1054 9.48043 18 9.73478 18 10C18 10.2652 18.1054 10.5196 18.2929 10.7071C18.4804 10.8946 18.7348 11 19 11H27C27.2652 11 27.5196 10.8946 27.7071 10.7071C27.8946 10.5196 28 10.2652 28 10C28 9.73478 27.8946 9.48043 27.7071 9.29289C27.5196 9.10536 27.2652 9 27 9Z" fill="#424242"/>
<path d="M9 23C9.55228 23 10 22.5523 10 22C10 21.4477 9.55228 21 9 21C8.44772 21 8 21.4477 8 22C8 22.5523 8.44772 23 9 23Z" fill="#FC6459"/>
<path d="M13 23C13.5523 23 14 22.5523 14 22C14 21.4477 13.5523 21 13 21C12.4477 21 12 21.4477 12 22C12 22.5523 12.4477 23 13 23Z" fill="#FC6459"/>
<path d="M27 21H19C18.7348 21 18.4804 21.1054 18.2929 21.2929C18.1054 21.4804 18 21.7348 18 22C18 22.2652 18.1054 22.5196 18.2929 22.7071C18.4804 22.8946 18.7348 23 19 23H27C27.2652 23 27.5196 22.8946 27.7071 22.7071C27.8946 22.5196 28 22.2652 28 22C28 21.7348 27.8946 21.4804 27.7071 21.2929C27.5196 21.1054 27.2652 21 27 21Z" fill="#424242"/>
<path d="M9 35C9.55228 35 10 34.5523 10 34C10 33.4477 9.55228 33 9 33C8.44772 33 8 33.4477 8 34C8 34.5523 8.44772 35 9 35Z" fill="#FC6459"/>
<path d="M13 35C13.5523 35 14 34.5523 14 34C14 33.4477 13.5523 33 13 33C12.4477 33 12 33.4477 12 34C12 34.5523 12.4477 35 13 35Z" fill="#FC6459"/>
<path d="M27 33H19C18.7348 33 18.4804 33.1054 18.2929 33.2929C18.1054 33.4804 18 33.7348 18 34C18 34.2652 18.1054 34.5196 18.2929 34.7071C18.4804 34.8946 18.7348 35 19 35H27C27.2652 35 27.5196 34.8946 27.7071 34.7071C27.8946 34.5196 28 34.2652 28 34C28 33.7348 27.8946 33.4804 27.7071 33.2929C27.5196 33.1054 27.2652 33 27 33Z" fill="#424242"/>
<path d="M29 5H7C6.20435 5 5.44129 5.31607 4.87868 5.87868C4.31607 6.44129 4 7.20435 4 8V36C4 36.7956 4.31607 37.5587 4.87868 38.1213C5.44129 38.6839 6.20435 39 7 39H29C29.7956 39 30.5587 38.6839 31.1213 38.1213C31.6839 37.5587 32 36.7956 32 36V8C32 7.20435 31.6839 6.44129 31.1213 5.87868C30.5587 5.31607 29.7956 5 29 5ZM30 36C30 36.2652 29.8946 36.5196 29.7071 36.7071C29.5196 36.8946 29.2652 37 29 37H7C6.73478 37 6.48043 36.8946 6.29289 36.7071C6.10536 36.5196 6 36.2652 6 36V32C6 31.7348 6.10536 31.4804 6.29289 31.2929C6.48043 31.1054 6.73478 31 7 31H29C29.2652 31 29.5196 31.1054 29.7071 31.2929C29.8946 31.4804 30 31.7348 30 32V36ZM30 29.18C29.27 28.92 31 29 7 29C6.65886 29.0027 6.32067 29.0636 6 29.18V26.82C6.73 27.08 5 27 29 27C29.3411 26.9973 29.6793 26.9364 30 26.82V29.18ZM30 24C30 24.2652 29.8946 24.5196 29.7071 24.7071C29.5196 24.8946 29.2652 25 29 25H7C6.73478 25 6.48043 24.8946 6.29289 24.7071C6.10536 24.5196 6 24.2652 6 24V20C6 19.7348 6.10536 19.4804 6.29289 19.2929C6.48043 19.1054 6.73478 19 7 19H29C29.2652 19 29.5196 19.1054 29.7071 19.2929C29.8946 19.4804 30 19.7348 30 20V24ZM30 17.18C29.27 16.92 31 17 7 17C6.65886 17.0027 6.32067 17.0636 6 17.18V14.82C6.73 15.08 5 15 29 15C29.3411 14.9973 29.6793 14.9364 30 14.82V17.18ZM30 12C30 12.2652 29.8946 12.5196 29.7071 12.7071C29.5196 12.8946 29.2652 13 29 13H7C6.73478 13 6.48043 12.8946 6.29289 12.7071C6.10536 12.5196 6 12.2652 6 12V8C6 7.73478 6.10536 7.48043 6.29289 7.29289C6.48043 7.10536 6.73478 7 7 7H29C29.2652 7 29.5196 7.10536 29.7071 7.29289C29.8946 7.48043 30 7.73478 30 8V12Z" fill="#424242"/>
</g>
<defs>
<clipPath id="clip0">
<rect width="48" height="48" fill="white"/>
</clipPath>
</defs>
</svg>
