<svg width="48" height="48" viewBox="0 0 48 48" fill="none" xmlns="http://www.w3.org/2000/svg">
<g clip-path="url(#clip0)">
<path d="M30 40H18V44H30V40Z" fill="#C52127"/>
<path d="M5 8V32H12V36H7V40H3C2.46957 40 1.96086 39.7893 1.58579 39.4142C1.21071 39.0391 1 38.5304 1 38V6C1 5.46957 1.21071 4.96086 1.58579 4.58579C1.96086 4.21071 2.46957 4 3 4H19C19.5304 4 20.0391 4.21071 20.4142 4.58579C20.7893 4.96086 21 5.46957 21 6V8H5Z" fill="#C52127"/>
<path d="M43 8V32H36V36H41V40H45C45.5304 40 46.0391 39.7893 46.4142 39.4142C46.7893 39.0391 47 38.5304 47 38V6C47 5.46957 46.7893 4.96086 46.4142 4.58579C46.0391 4.21071 45.5304 4 45 4H29C28.4696 4 27.9609 4.21071 27.5858 4.58579C27.2107 4.96086 27 5.46957 27 6V8H43Z" fill="#C52127"/>
<path d="M24 17H20C19.7348 17 19.4804 16.8946 19.2929 16.7071C19.1054 16.5196 19 16.2652 19 16C19 15.7348 19.1054 15.4804 19.2929 15.2929C19.4804 15.1054 19.7348 15 20 15H24C24.2652 15 24.5196 15.1054 24.7071 15.2929C24.8946 15.4804 25 15.7348 25 16C25 16.2652 24.8946 16.5196 24.7071 16.7071C24.5196 16.8946 24.2652 17 24 17Z" fill="#BFBFBF"/>
<path d="M24 25H20C19.7348 25 19.4804 24.8946 19.2929 24.7071C19.1054 24.5196 19 24.2652 19 24C19 23.7348 19.1054 23.4804 19.2929 23.2929C19.4804 23.1054 19.7348 23 20 23H24C24.2652 23 24.5196 23.1054 24.7071 23.2929C24.8946 23.4804 25 23.7348 25 24C25 24.2652 24.8946 24.5196 24.7071 24.7071C24.5196 24.8946 24.2652 25 24 25Z" fill="#BFBFBF"/>
<path d="M24 33H20C19.7348 33 19.4804 32.8946 19.2929 32.7071C19.1054 32.5196 19 32.2652 19 32C19 31.7348 19.1054 31.4804 19.2929 31.2929C19.4804 31.1054 19.7348 31 20 31H24C24.2652 31 24.5196 31.1054 24.7071 31.2929C24.8946 31.4804 25 31.7348 25 32C25 32.2652 24.8946 32.5196 24.7071 32.7071C24.5196 32.8946 24.2652 33 24 33Z" fill="#BFBFBF"/>
<path d="M12 13H9C8.73478 13 8.48043 12.8946 8.29289 12.7071C8.10536 12.5196 8 12.2652 8 12C8 11.7348 8.10536 11.4804 8.29289 11.2929C8.48043 11.1054 8.73478 11 9 11H12C12.2652 11 12.5196 11.1054 12.7071 11.2929C12.8946 11.4804 13 11.7348 13 12C13 12.2652 12.8946 12.5196 12.7071 12.7071C12.5196 12.8946 12.2652 13 12 13Z" fill="#BFBFBF"/>
<path d="M12 21H9C8.73478 21 8.48043 20.8946 8.29289 20.7071C8.10536 20.5196 8 20.2652 8 20C8 19.7348 8.10536 19.4804 8.29289 19.2929C8.48043 19.1054 8.73478 19 9 19H12C12.2652 19 12.5196 19.1054 12.7071 19.2929C12.8946 19.4804 13 19.7348 13 20C13 20.2652 12.8946 20.5196 12.7071 20.7071C12.5196 20.8946 12.2652 21 12 21Z" fill="#BFBFBF"/>
<path d="M12 29H9C8.73478 29 8.48043 28.8946 8.29289 28.7071C8.10536 28.5196 8 28.2652 8 28C8 27.7348 8.10536 27.4804 8.29289 27.2929C8.48043 27.1054 8.73478 27 9 27H12C12.2652 27 12.5196 27.1054 12.7071 27.2929C12.8946 27.4804 13 27.7348 13 28C13 28.2652 12.8946 28.5196 12.7071 28.7071C12.5196 28.8946 12.2652 29 12 29Z" fill="#BFBFBF"/>
<path d="M39 13H36C35.7348 13 35.4804 12.8946 35.2929 12.7071C35.1054 12.5196 35 12.2652 35 12C35 11.7348 35.1054 11.4804 35.2929 11.2929C35.4804 11.1054 35.7348 11 36 11H39C39.2652 11 39.5196 11.1054 39.7071 11.2929C39.8946 11.4804 40 11.7348 40 12C40 12.2652 39.8946 12.5196 39.7071 12.7071C39.5196 12.8946 39.2652 13 39 13Z" fill="#BFBFBF"/>
<path d="M39 21H36C35.7348 21 35.4804 20.8946 35.2929 20.7071C35.1054 20.5196 35 20.2652 35 20C35 19.7348 35.1054 19.4804 35.2929 19.2929C35.4804 19.1054 35.7348 19 36 19H39C39.2652 19 39.5196 19.1054 39.7071 19.2929C39.8946 19.4804 40 19.7348 40 20C40 20.2652 39.8946 20.5196 39.7071 20.7071C39.5196 20.8946 39.2652 21 39 21Z" fill="#BFBFBF"/>
<path d="M39 29H36C35.7348 29 35.4804 28.8946 35.2929 28.7071C35.1054 28.5196 35 28.2652 35 28C35 27.7348 35.1054 27.4804 35.2929 27.2929C35.4804 27.1054 35.7348 27 36 27H39C39.2652 27 39.5196 27.1054 39.7071 27.2929C39.8946 27.4804 40 27.7348 40 28C40 28.2652 39.8946 28.5196 39.7071 28.7071C39.5196 28.8946 39.2652 29 39 29Z" fill="#BFBFBF"/>
<path d="M28 17C28.5523 17 29 16.5523 29 16C29 15.4477 28.5523 15 28 15C27.4477 15 27 15.4477 27 16C27 16.5523 27.4477 17 28 17Z" fill="#FC6459"/>
<path d="M28 25C28.5523 25 29 24.5523 29 24C29 23.4477 28.5523 23 28 23C27.4477 23 27 23.4477 27 24C27 24.5523 27.4477 25 28 25Z" fill="#FC6459"/>
<path d="M28 33C28.5523 33 29 32.5523 29 32C29 31.4477 28.5523 31 28 31C27.4477 31 27 31.4477 27 32C27 32.5523 27.4477 33 28 33Z" fill="#FC6459"/>
<path d="M45 3H29C28.2044 3 27.4413 3.31607 26.8787 3.87868C26.3161 4.44129 26 5.20435 26 6V7H22V6C22 5.20435 21.6839 4.44129 21.1213 3.87868C20.5587 3.31607 19.7956 3 19 3H3C2.20435 3 1.44129 3.31607 0.87868 3.87868C0.31607 4.44129 0 5.20435 0 6L0 38C0 38.7957 0.31607 39.5587 0.87868 40.1213C1.44129 40.6839 2.20435 41 3 41H11V42C11 42.7957 11.3161 43.5587 11.8787 44.1213C12.4413 44.6839 13.2044 45 14 45H34C34.7957 45 35.5587 44.6839 36.1213 44.1213C36.6839 43.5587 37 42.7957 37 42V41H45C45.7957 41 46.5587 40.6839 47.1213 40.1213C47.6839 39.5587 48 38.7957 48 38V6C48 5.20435 47.6839 4.44129 47.1213 3.87868C46.5587 3.31607 45.7957 3 45 3ZM11 39H8V37H11V39ZM11 31H6V25H11V31ZM11 23H6V17H11V23ZM11 15H6V9H11.18C10.94 9.68 11 9.51 11 15ZM5 7C4.73478 7 4.48043 7.10536 4.29289 7.29289C4.10536 7.48043 4 7.73478 4 8V32C4 32.2652 4.10536 32.5196 4.29289 32.7071C4.48043 32.8946 4.73478 33 5 33H11V35H7C6.73478 35 6.48043 35.1054 6.29289 35.2929C6.10536 35.4804 6 35.7348 6 36V39H3C2.73478 39 2.48043 38.8946 2.29289 38.7071C2.10536 38.5196 2 38.2652 2 38V6C2 5.73478 2.10536 5.48043 2.29289 5.29289C2.48043 5.10536 2.73478 5 3 5H19C19.2652 5 19.5196 5.10536 19.7071 5.29289C19.8946 5.48043 20 5.73478 20 6V7H5ZM29 43H19V41H29V43ZM35 42C35 42.2652 34.8946 42.5196 34.7071 42.7071C34.5196 42.8946 34.2652 43 34 43H31V40C31 39.7348 30.8946 39.4804 30.7071 39.2929C30.5196 39.1054 30.2652 39 30 39H18C17.7348 39 17.4804 39.1054 17.2929 39.2929C17.1054 39.4804 17 39.7348 17 40V43H14C13.7348 43 13.4804 42.8946 13.2929 42.7071C13.1054 42.5196 13 42.2652 13 42V10C13 9.73478 13.1054 9.48043 13.2929 9.29289C13.4804 9.10536 13.7348 9 14 9H34C34.2652 9 34.5196 9.10536 34.7071 9.29289C34.8946 9.48043 35 9.73478 35 10V42ZM36.82 9H42V15H37C37 9.56 37.06 9.68 36.82 9ZM37 23V17H42V23H37ZM42 25V31H37V25H42ZM40 39H37V37H40V39ZM46 38C46 38.2652 45.8946 38.5196 45.7071 38.7071C45.5196 38.8946 45.2652 39 45 39H42V36C42 35.7348 41.8946 35.4804 41.7071 35.2929C41.5196 35.1054 41.2652 35 41 35H37V33H43C43.2652 33 43.5196 32.8946 43.7071 32.7071C43.8946 32.5196 44 32.2652 44 32V8C44 7.73478 43.8946 7.48043 43.7071 7.29289C43.5196 7.10536 43.2652 7 43 7H28V6C28 5.73478 28.1054 5.48043 28.2929 5.29289C28.4804 5.10536 28.7348 5 29 5H45C45.2652 5 45.5196 5.10536 45.7071 5.29289C45.8946 5.48043 46 5.73478 46 6V38Z" fill="#424242"/>
<path d="M32 11H16C15.7348 11 15.4804 11.1054 15.2929 11.2929C15.1054 11.4804 15 11.7348 15 12V36C15 36.2652 15.1054 36.5196 15.2929 36.7071C15.4804 36.8946 15.7348 37 16 37H32C32.2652 37 32.5196 36.8946 32.7071 36.7071C32.8946 36.5196 33 36.2652 33 36V12C33 11.7348 32.8946 11.4804 32.7071 11.2929C32.5196 11.1054 32.2652 11 32 11ZM31 35H17V29H31V35ZM31 27H17V21H31V27ZM31 19H17V13H31V19Z" fill="#424242"/>
</g>
<defs>
<clipPath id="clip0">
<rect width="48" height="48" fill="white"/>
</clipPath>
</defs>
</svg>
