<svg width="48" height="48" viewBox="0 0 48 48" fill="none" xmlns="http://www.w3.org/2000/svg">
<g clip-path="url(#clip0)">
<path d="M47 11H1V6C1 5.20435 1.31607 4.44129 1.87868 3.87868C2.44129 3.31607 3.20435 3 4 3H14.15C14.7067 3.00076 15.2523 3.15644 15.7256 3.44961C16.1989 3.74278 16.5813 4.16187 16.83 4.66L18 7H47V11Z" fill="#C52127"/>
<path d="M5 8C5.55228 8 6 7.55228 6 7C6 6.44772 5.55228 6 5 6C4.44772 6 4 6.44772 4 7C4 7.55228 4.44772 8 5 8Z" fill="#424242"/>
<path d="M9 8C9.55228 8 10 7.55228 10 7C10 6.44772 9.55228 6 9 6C8.44772 6 8 6.44772 8 7C8 7.55228 8.44772 8 9 8Z" fill="#424242"/>
<path d="M13 8C13.5523 8 14 7.55228 14 7C14 6.44772 13.5523 6 13 6C12.4477 6 12 6.44772 12 7C12 7.55228 12.4477 8 13 8Z" fill="#424242"/>
<path d="M44 2H4C2.93913 2 1.92172 2.42143 1.17157 3.17157C0.421427 3.92172 0 4.93913 0 6L0 42C0 43.0609 0.421427 44.0783 1.17157 44.8284C1.92172 45.5786 2.93913 46 4 46H44C45.0609 46 46.0783 45.5786 46.8284 44.8284C47.5786 44.0783 48 43.0609 48 42V6C48 4.93913 47.5786 3.92172 46.8284 3.17157C46.0783 2.42143 45.0609 2 44 2ZM29.15 4C29.5204 4.00205 29.8829 4.10691 30.1972 4.3029C30.5115 4.49889 30.7652 4.7783 30.93 5.11L31.38 6H18.62C17.46 3.7 17.74 4.25 17.62 4H29.15ZM46 42C46 42.5304 45.7893 43.0391 45.4142 43.4142C45.0391 43.7893 44.5304 44 44 44H4C3.46957 44 2.96086 43.7893 2.58579 43.4142C2.21071 43.0391 2 42.5304 2 42V12H46V42ZM46 10H2V6C2 5.46957 2.21071 4.96086 2.58579 4.58579C2.96086 4.21071 3.46957 4 4 4H14.15C14.5204 4.00205 14.8829 4.10691 15.1972 4.3029C15.5115 4.49889 15.7652 4.7783 15.93 5.11L17.11 7.45C17.1931 7.61491 17.3202 7.7536 17.4773 7.85068C17.6344 7.94776 17.8153 7.99944 18 8H46V10ZM33.62 6C32.46 3.7 32.74 4.25 32.62 4H44C44.5304 4 45.0391 4.21071 45.4142 4.58579C45.7893 4.96086 46 5.46957 46 6H33.62Z" fill="#424242"/>
<path d="M30 34C29.2044 34 28.4413 34.3161 27.8787 34.8787C27.3161 35.4413 27 36.2044 27 37V39C27 39.7956 27.3161 40.5587 27.8787 41.1213C28.4413 41.6839 29.2044 42 30 42C30.7956 42 31.5587 41.6839 32.1213 41.1213C32.6839 40.5587 33 39.7956 33 39V37C33 36.2044 32.6839 35.4413 32.1213 34.8787C31.5587 34.3161 30.7956 34 30 34ZM31 39C31 39.2652 30.8946 39.5196 30.7071 39.7071C30.5196 39.8946 30.2652 40 30 40C29.7348 40 29.4804 39.8946 29.2929 39.7071C29.1054 39.5196 29 39.2652 29 39V37C29 36.7348 29.1054 36.4804 29.2929 36.2929C29.4804 36.1054 29.7348 36 30 36C30.2652 36 30.5196 36.1054 30.7071 36.2929C30.8946 36.4804 31 36.7348 31 37V39Z" fill="#424242"/>
<path d="M22 32C22.7956 32 23.5587 31.6839 24.1213 31.1213C24.6839 30.5587 25 29.7956 25 29V27C25 26.2044 24.6839 25.4413 24.1213 24.8787C23.5587 24.3161 22.7956 24 22 24C21.2044 24 20.4413 24.3161 19.8787 24.8787C19.3161 25.4413 19 26.2044 19 27V29C19 29.7956 19.3161 30.5587 19.8787 31.1213C20.4413 31.6839 21.2044 32 22 32ZM21 27C21 26.7348 21.1054 26.4804 21.2929 26.2929C21.4804 26.1054 21.7348 26 22 26C22.2652 26 22.5196 26.1054 22.7071 26.2929C22.8946 26.4804 23 26.7348 23 27V29C23 29.2652 22.8946 29.5196 22.7071 29.7071C22.5196 29.8946 22.2652 30 22 30C21.7348 30 21.4804 29.8946 21.2929 29.7071C21.1054 29.5196 21 29.2652 21 29V27Z" fill="#424242"/>
<path d="M23.7 39.4C23.5111 39.6519 23.2478 39.8379 22.9473 39.9318C22.6467 40.0256 22.3243 40.0226 22.0257 39.923C21.727 39.8235 21.4672 39.6325 21.2831 39.3771C21.0991 39.1217 21 38.8148 21 38.5V37.5C21 37.1022 21.158 36.7206 21.4393 36.4393C21.7206 36.158 22.1022 36 22.5 36C22.7272 35.998 22.9519 36.0484 23.1565 36.1473C23.3612 36.2461 23.5403 36.3908 23.68 36.57C23.7516 36.6853 23.8458 36.7848 23.9571 36.8625C24.0683 36.9402 24.1942 36.9945 24.3271 37.0219C24.46 37.0494 24.5971 37.0496 24.73 37.0224C24.863 36.9952 24.989 36.9412 25.1004 36.8638C25.2119 36.7863 25.3063 36.687 25.3782 36.5719C25.45 36.4567 25.4976 36.3282 25.5181 36.194C25.5387 36.0599 25.5317 35.923 25.4976 35.7916C25.4636 35.6603 25.4031 35.5372 25.32 35.43C24.998 34.9841 24.574 34.6217 24.0835 34.3729C23.5929 34.1242 23.05 33.9963 22.5 34C21.5717 34 20.6815 34.3688 20.0251 35.0251C19.3687 35.6815 19 36.5717 19 37.5V38.5C19 39.2346 19.2311 39.9506 19.6607 40.5465C20.0902 41.1424 20.6963 41.5881 21.3932 41.8204C22.0901 42.0527 22.8424 42.0598 23.5436 41.8408C24.2448 41.6218 24.8592 41.1877 25.3 40.6C25.3788 40.4949 25.4361 40.3754 25.4687 40.2482C25.5013 40.121 25.5085 39.9886 25.49 39.8586C25.4714 39.7286 25.4274 39.6035 25.3605 39.4905C25.2936 39.3775 25.2051 39.2788 25.1 39.2C24.9949 39.1212 24.8754 39.0639 24.7482 39.0313C24.621 38.9987 24.4886 38.9915 24.3586 39.0101C24.2286 39.0286 24.1035 39.0726 23.9905 39.1395C23.8775 39.2064 23.7788 39.2949 23.7 39.4Z" fill="#424242"/>
<path d="M35 27.5V28.5C34.9996 29.1084 35.1583 29.7063 35.4604 30.2345C35.7624 30.7627 36.1972 31.2027 36.7218 31.5109C37.2463 31.8192 37.8423 31.985 38.4507 31.9918C39.0591 31.9987 39.6586 31.8464 40.19 31.55C40.312 31.7189 40.4838 31.8455 40.6812 31.9121C40.8787 31.9786 41.092 31.9818 41.2914 31.9212C41.4908 31.8607 41.6662 31.7393 41.7933 31.5741C41.9203 31.409 41.9926 31.2082 42 31V29C42 28.7348 41.8946 28.4804 41.7071 28.2929C41.5196 28.1054 41.2652 28 41 28H39C38.7348 27.9761 38.4709 28.0586 38.2665 28.2293C38.0621 28.3999 37.9339 28.6448 37.91 28.91C37.8861 29.1752 37.9686 29.4391 38.1393 29.6435C38.3099 29.8479 38.5548 29.9761 38.82 30C38.5981 30.0485 38.3681 30.046 38.1474 29.9927C37.9266 29.9394 37.7209 29.8366 37.5456 29.6921C37.3703 29.5477 37.2302 29.3654 37.1357 29.1588C37.0411 28.9523 36.9948 28.7271 37 28.5V27.5C36.9992 27.1876 37.0959 26.8828 37.2766 26.6281C37.4574 26.3733 37.7131 26.1814 38.0082 26.079C38.3033 25.9766 38.623 25.9688 38.9227 26.0569C39.2224 26.1449 39.4872 26.3243 39.68 26.57C39.7516 26.6853 39.8458 26.7848 39.9571 26.8625C40.0683 26.9402 40.1942 26.9945 40.3271 27.0219C40.46 27.0494 40.5971 27.0496 40.73 27.0224C40.863 26.9952 40.989 26.9412 41.1004 26.8638C41.2119 26.7863 41.3063 26.687 41.3782 26.5719C41.45 26.4567 41.4976 26.3282 41.5181 26.194C41.5387 26.0599 41.5317 25.923 41.4976 25.7916C41.4636 25.6603 41.4031 25.5373 41.32 25.43C40.8834 24.836 40.2703 24.3951 39.5683 24.1701C38.8663 23.9451 38.1112 23.9475 37.4106 24.1769C36.71 24.4064 36.0998 24.8512 35.6669 25.4479C35.234 26.0446 35.0006 26.7628 35 27.5Z" fill="#424242"/>
<path d="M41.45 34.17L39 35.8L36.55 34.17C36.3996 34.071 36.2252 34.0144 36.0453 34.0062C35.8654 33.998 35.6867 34.0386 35.5279 34.1236C35.3692 34.2086 35.2363 34.3349 35.1434 34.4892C35.0505 34.6434 35.0009 34.8199 35 35V41C35 41.2652 35.1054 41.5196 35.2929 41.7071C35.4804 41.8946 35.7348 42 36 42C36.2652 42 36.5196 41.8946 36.7071 41.7071C36.8946 41.5196 37 41.2652 37 41V36.87L38.45 37.87C38.6133 37.9775 38.8045 38.0348 39 38.0348C39.1955 38.0348 39.3867 37.9775 39.55 37.87L41 36.87V41C41 41.2652 41.1054 41.5196 41.2929 41.7071C41.4804 41.8946 41.7348 42 42 42C42.2652 42 42.5196 41.8946 42.7071 41.7071C42.8946 41.5196 43 41.2652 43 41V35C42.9991 34.8199 42.9495 34.6434 42.8566 34.4892C42.7637 34.3349 42.6308 34.2086 42.4721 34.1236C42.3133 34.0386 42.1346 33.998 41.9547 34.0062C41.7748 34.0144 41.6004 34.071 41.45 34.17Z" fill="#424242"/>
<path d="M20 22C20.2652 22 20.5196 21.8946 20.7071 21.7071C20.8946 21.5196 21 21.2652 21 21V18.3L23.17 21.55C23.2892 21.7273 23.462 21.8619 23.6631 21.9338C23.8643 22.0058 24.0832 22.0115 24.2879 21.95C24.4925 21.8885 24.672 21.7631 24.8002 21.5921C24.9283 21.4212 24.9984 21.2136 25 21V15C25 14.7348 24.8946 14.4804 24.7071 14.2929C24.5196 14.1054 24.2652 14 24 14C23.7348 14 23.4804 14.1054 23.2929 14.2929C23.1054 14.4804 23 14.7348 23 15V17.7L20.83 14.45C20.7108 14.2727 20.538 14.1381 20.3369 14.0662C20.1357 13.9942 19.9168 13.9885 19.7121 14.05C19.5075 14.1115 19.328 14.2369 19.1998 14.4079C19.0717 14.5788 19.0016 14.7864 19 15V21C19 21.2652 19.1054 21.5196 19.2929 21.7071C19.4804 21.8946 19.7348 22 20 22Z" fill="#424242"/>
<path d="M28 22H31C31.2652 22 31.5196 21.8946 31.7071 21.7071C31.8946 21.5196 32 21.2652 32 21C32 20.7348 31.8946 20.4804 31.7071 20.2929C31.5196 20.1054 31.2652 20 31 20H29V19H31C31.2652 19 31.5196 18.8946 31.7071 18.7071C31.8946 18.5196 32 18.2652 32 18C32 17.7348 31.8946 17.4804 31.7071 17.2929C31.5196 17.1054 31.2652 17 31 17H29V16H31C31.2652 16 31.5196 15.8946 31.7071 15.7071C31.8946 15.5196 32 15.2652 32 15C32 14.7348 31.8946 14.4804 31.7071 14.2929C31.5196 14.1054 31.2652 14 31 14H28C27.7348 14 27.4804 14.1054 27.2929 14.2929C27.1054 14.4804 27 14.7348 27 15V21C27 21.2652 27.1054 21.5196 27.2929 21.7071C27.4804 21.8946 27.7348 22 28 22Z" fill="#424242"/>
<path d="M36 16V21C36 21.2652 36.1054 21.5196 36.2929 21.7071C36.4804 21.8946 36.7348 22 37 22C37.2652 22 37.5196 21.8946 37.7071 21.7071C37.8946 21.5196 38 21.2652 38 21V16H39C39.2652 16 39.5196 15.8946 39.7071 15.7071C39.8946 15.5196 40 15.2652 40 15C40 14.7348 39.8946 14.4804 39.7071 14.2929C39.5196 14.1054 39.2652 14 39 14H35C34.7348 14 34.4804 14.1054 34.2929 14.2929C34.1054 14.4804 34 14.7348 34 15C34 15.2652 34.1054 15.5196 34.2929 15.7071C34.4804 15.8946 34.7348 16 35 16H36Z" fill="#424242"/>
<path d="M30 24H28C27.7348 24 27.4804 24.1054 27.2929 24.2929C27.1054 24.4804 27 24.7348 27 25V31C27 31.2652 27.1054 31.5196 27.2929 31.7071C27.4804 31.8946 27.7348 32 28 32C28.2652 32 28.5196 31.8946 28.7071 31.7071C28.8946 31.5196 29 31.2652 29 31V30C29.4518 30.0522 29.9082 30.0522 30.36 30L31.11 31.49C31.1985 31.6475 31.3279 31.778 31.4846 31.8678C31.6413 31.9576 31.8194 32.0033 32 32C32.1705 31.9995 32.338 31.9554 32.4866 31.8719C32.6352 31.7885 32.7601 31.6684 32.8492 31.5231C32.9384 31.3778 32.989 31.2122 32.9961 31.0419C33.0032 30.8715 32.9667 30.7022 32.89 30.55L32.16 29.08C32.5679 28.6561 32.8421 28.1216 32.9486 27.5431C33.0551 26.9646 32.9891 26.3675 32.7589 25.8261C32.5288 25.2848 32.1445 24.823 31.654 24.4983C31.1634 24.1737 30.5883 24.0004 30 24ZM29 28V26H30C30.2652 26 30.5196 26.1054 30.7071 26.2929C30.8946 26.4804 31 26.7348 31 27C31 27.2652 30.8946 27.5196 30.7071 27.7071C30.5196 27.8946 30.2652 28 30 28H29Z" fill="#424242"/>
<path d="M16 22C16.5523 22 17 21.5523 17 21C17 20.4477 16.5523 20 16 20C15.4477 20 15 20.4477 15 21C15 21.5523 15.4477 22 16 22Z" fill="#424242"/>
<path d="M12 14H6C5.44772 14 5 14.4477 5 15V21C5 21.5523 5.44772 22 6 22H12C12.5523 22 13 21.5523 13 21V15C13 14.4477 12.5523 14 12 14Z" fill="#BFBFBF"/>
<path d="M16 32C16.5523 32 17 31.5523 17 31C17 30.4477 16.5523 30 16 30C15.4477 30 15 30.4477 15 31C15 31.5523 15.4477 32 16 32Z" fill="#424242"/>
<path d="M12 24H6C5.44772 24 5 24.4477 5 25V31C5 31.5523 5.44772 32 6 32H12C12.5523 32 13 31.5523 13 31V25C13 24.4477 12.5523 24 12 24Z" fill="#BFBFBF"/>
<path d="M16 42C16.5523 42 17 41.5523 17 41C17 40.4477 16.5523 40 16 40C15.4477 40 15 40.4477 15 41C15 41.5523 15.4477 42 16 42Z" fill="#424242"/>
<path d="M12 34H6C5.44772 34 5 34.4477 5 35V41C5 41.5523 5.44772 42 6 42H12C12.5523 42 13 41.5523 13 41V35C13 34.4477 12.5523 34 12 34Z" fill="#FC6459"/>
<path d="M8 41C7.46 41 7.43 40.85 5.29 38.71C5.1017 38.5217 4.99591 38.2663 4.99591 38C4.99591 37.7337 5.1017 37.4783 5.29 37.29C5.47831 37.1017 5.7337 36.9959 6 36.9959C6.2663 36.9959 6.5217 37.1017 6.71 37.29L8 38.59L11.29 35.29C11.4783 35.1017 11.7337 34.9959 12 34.9959C12.2663 34.9959 12.5217 35.1017 12.71 35.29C12.8983 35.4783 13.0041 35.7337 13.0041 36C13.0041 36.2663 12.8983 36.5217 12.71 36.71L8.71 40.71C8.61656 40.8027 8.50575 40.876 8.38391 40.9258C8.26207 40.9755 8.13161 41.0008 8 41Z" fill="#424242"/>
</g>
<defs>
<clipPath id="clip0">
<rect width="48" height="48" fill="white"/>
</clipPath>
</defs>
</svg>
