<svg width="48" height="48" viewBox="0 0 48 48" fill="none" xmlns="http://www.w3.org/2000/svg">
<g clip-path="url(#clip0)">
<path d="M34 9.09C33.8152 6.74485 32.8095 4.53994 31.1598 2.86293C29.5101 1.18592 27.322 0.144175 24.9802 -0.0791374C22.6384 -0.30245 20.2928 0.306965 18.3559 1.64196C16.419 2.97695 15.0147 4.95205 14.39 7.22C12.9926 7.6092 11.7835 8.49147 10.9865 9.7035C10.1896 10.9155 9.85867 12.3753 10.0551 13.8125C10.2515 15.2497 10.962 16.5671 12.0549 17.5208C13.1479 18.4746 14.5494 19 16 19H18C18.2652 19 18.5196 18.8946 18.7071 18.7071C18.8946 18.5196 19 18.2652 19 18C19 17.7348 18.8946 17.4804 18.7071 17.2929C18.5196 17.1054 18.2652 17 18 17H16C14.9391 17 13.9217 16.5786 13.1716 15.8284C12.4214 15.0783 12 14.0609 12 13C12.002 12.0515 12.341 11.1346 12.9564 10.4129C13.5719 9.69126 14.4237 9.21175 15.36 9.06C15.9047 8.97625 16.46 8.98979 17 9.1C17.2652 9.12785 17.5306 9.0492 17.7378 8.88135C17.9451 8.71351 18.0771 8.47021 18.105 8.205C18.1328 7.93978 18.0542 7.67437 17.8863 7.46714C17.7185 7.25991 17.4752 7.12785 17.21 7.1C16.9987 7.05477 16.785 7.02138 16.57 7C17.218 5.31717 18.4155 3.90262 19.9683 2.9858C21.5211 2.06898 23.3381 1.70367 25.1246 1.94912C26.9111 2.19457 28.5622 3.0364 29.8102 4.33803C31.0582 5.63967 31.8299 7.32477 32 9.12L31.78 9.17C31.5148 9.2058 31.2746 9.3455 31.1124 9.55835C30.9502 9.7712 30.8792 10.0398 30.915 10.305C30.9508 10.5702 31.0905 10.8103 31.3033 10.9726C31.5162 11.1348 31.7848 11.2058 32.05 11.17C32.3625 11.0923 32.6799 11.0355 33 11C33.7956 11 34.5587 11.3161 35.1213 11.8787C35.6839 12.4413 36 13.2043 36 14C36 14.7956 35.6839 15.5587 35.1213 16.1213C34.5587 16.6839 33.7956 17 33 17H30C29.7348 17 29.4804 17.1054 29.2929 17.2929C29.1053 17.4804 29 17.7348 29 18C29 18.2652 29.1053 18.5196 29.2929 18.7071C29.4804 18.8946 29.7348 19 30 19H33C34.249 19.0143 35.4581 18.5606 36.3893 17.7283C37.3206 16.8959 37.9066 15.7451 38.032 14.5023C38.1574 13.2596 37.8132 12.0149 37.0669 11.0132C36.3207 10.0116 35.2266 9.32549 34 9.09Z" fill="#424242"/>
<path d="M18 34.41V43H8.00002V41L2.00002 34.13C1.35917 33.4034 1.00384 32.4688 1.00002 31.5V16.17C0.977472 15.3743 1.27192 14.6023 1.81859 14.0238C2.36526 13.4452 3.11937 13.1075 3.91502 13.085C4.71066 13.0625 5.48268 13.3569 6.06123 13.9036C6.63978 14.4502 6.97747 15.2043 7.00002 16V25.33C7.57801 24.9119 8.28605 24.7135 8.99711 24.7703C9.70818 24.8272 10.3757 25.1355 10.88 25.64L16.83 31.58C17.2014 31.9517 17.4958 32.393 17.6966 32.8786C17.8973 33.3642 18.0004 33.8846 18 34.41Z" fill="#C52127"/>
<path d="M30 34.41V43H40V41L46 34.13C46.6408 33.4034 46.9962 32.4688 47 31.5V16.17C47.0112 15.776 46.9446 15.3837 46.8042 15.0155C46.6637 14.6472 46.4521 14.3103 46.1814 14.0238C45.9107 13.7373 45.5863 13.507 45.2266 13.3459C44.8669 13.1848 44.479 13.0962 44.085 13.085C43.691 13.0738 43.2987 13.1404 42.9305 13.2808C42.5622 13.4213 42.2253 13.6329 41.9388 13.9036C41.6523 14.1743 41.422 14.4987 41.2609 14.8584C41.0998 15.2181 41.0112 15.606 41 16V25.33C40.422 24.9119 39.714 24.7135 39.0029 24.7703C38.2918 24.8271 37.6243 25.1355 37.12 25.64L31.17 31.58C30.7987 31.9517 30.5042 32.393 30.3035 32.8786C30.1027 33.3642 29.9996 33.8846 30 34.41Z" fill="#C52127"/>
<path d="M19 18H17V22H19V18Z" fill="#424242"/>
<path d="M29 22H31V18H29V22Z" fill="#424242"/>
<path d="M20 42H19V34.41C18.9998 33.7523 18.8699 33.101 18.6177 32.4935C18.3654 31.8861 17.9958 31.3344 17.53 30.87L11.59 24.94C11.1314 24.4709 10.5625 24.1244 9.93526 23.9322C9.30805 23.74 8.64263 23.7083 7.99999 23.84V16C7.97745 14.9391 7.5344 13.9307 6.76831 13.1965C6.00223 12.4623 4.97585 12.0625 3.91499 12.085C2.85412 12.1075 1.84566 12.5506 1.11146 13.3167C0.377252 14.0828 -0.0225548 15.1091 -1.13904e-05 16.17V31.5C0.00139763 32.7106 0.441991 33.8796 1.23999 34.79L6.99999 41.38V42H5.99999C5.73477 42 5.48042 42.1054 5.29288 42.2929C5.10535 42.4804 4.99999 42.7348 4.99999 43V47C4.99999 47.2652 5.10535 47.5196 5.29288 47.7071C5.48042 47.8946 5.73477 48 5.99999 48H20C20.2652 48 20.5196 47.8946 20.7071 47.7071C20.8946 47.5196 21 47.2652 21 47V43C21 42.7348 20.8946 42.4804 20.7071 42.2929C20.5196 42.1054 20.2652 42 20 42ZM2.73999 33.47C2.2567 32.9165 1.99339 32.2048 1.99999 31.47V16.17C1.96538 15.7612 2.05735 15.3516 2.26344 14.9968C2.46953 14.642 2.77976 14.3591 3.15205 14.1866C3.52434 14.0141 3.94067 13.9603 4.34459 14.0325C4.7485 14.1046 5.12045 14.2993 5.40999 14.59C5.78558 14.9634 5.99776 15.4704 5.99999 16C5.99999 25.6 5.99999 24.83 5.93999 24.93C5.56808 25.3015 5.27305 25.7427 5.07175 26.2282C4.87045 26.7138 4.76684 27.2343 4.76684 27.76C4.76684 28.2857 4.87045 28.8062 5.07175 29.2918C5.27305 29.7774 5.56808 30.2185 5.93999 30.59L10.29 35C10.383 35.0937 10.4936 35.1681 10.6154 35.2189C10.7373 35.2697 10.868 35.2958 11 35.2958C11.132 35.2958 11.2627 35.2697 11.3846 35.2189C11.5064 35.1681 11.617 35.0937 11.71 35C11.8962 34.8126 12.0008 34.5592 12.0008 34.295C12.0008 34.0308 11.8962 33.7774 11.71 33.59L7.33999 29.17C7.14177 28.9651 6.98964 28.7202 6.8938 28.4517C6.79796 28.1832 6.76063 27.8974 6.7843 27.6133C6.80798 27.3292 6.89211 27.0534 7.03107 26.8045C7.17003 26.5556 7.36059 26.3393 7.58999 26.17C7.97514 25.8935 8.44599 25.7629 8.91854 25.8013C9.3911 25.8398 9.83462 26.0449 10.17 26.38L16.17 32.32C16.7072 32.8827 17.0048 33.6321 17 34.41V42H8.99999V41C8.99999 40.46 9.18999 40.85 2.73999 33.47ZM19 46H6.99999V44H19V46Z" fill="#424242"/>
<path d="M44.29 12C43.7408 11.9601 43.1894 12.034 42.6701 12.217C42.1508 12.4001 41.6749 12.6884 41.2722 13.0639C40.8695 13.4394 40.5486 13.894 40.3297 14.3992C40.1108 14.9044 39.9986 15.4494 40 16V23.86C39.3596 23.7386 38.6995 23.7725 38.0749 23.9586C37.4503 24.1448 36.8794 24.4779 36.41 24.93L30.47 30.87C30.0015 31.3324 29.6301 31.8837 29.3777 32.4916C29.1252 33.0995 28.9968 33.7518 29 34.41V42H28C27.7348 42 27.4804 42.1054 27.2929 42.2929C27.1054 42.4804 27 42.7348 27 43V47C27 47.2652 27.1054 47.5196 27.2929 47.7071C27.4804 47.8946 27.7348 48 28 48H42C42.2652 48 42.5196 47.8946 42.7071 47.7071C42.8946 47.5196 43 47.2652 43 47V43C43 42.7348 42.8946 42.4804 42.7071 42.2929C42.5196 42.1054 42.2652 42 42 42H41V41.38L46.76 34.79C47.558 33.8796 47.9986 32.7106 48 31.5V16.17C48.0223 15.1349 47.6523 14.1297 46.9641 13.3562C46.276 12.5827 45.3206 12.0982 44.29 12ZM41 46H29V44H41V46ZM46 31.5C46.0066 32.2348 45.7433 32.9465 45.26 33.5L39.26 40.37C38.94 40.69 39 41 39 42H31V34.41C31.0007 33.6146 31.3172 32.8521 31.88 32.29L37.83 26.34C38.1691 26.0027 38.6178 25.798 39.0948 25.7632C39.5718 25.7283 40.0455 25.8656 40.43 26.15C40.6573 26.3215 40.8454 26.5397 40.9816 26.7897C41.1178 27.0398 41.1991 27.3161 41.2199 27.6001C41.2407 27.8842 41.2006 28.1693 41.1024 28.4366C41.0041 28.7039 40.8499 28.9471 40.65 29.15L36.29 33.52C36.1038 33.7074 35.9992 33.9608 35.9992 34.225C35.9992 34.4892 36.1038 34.7426 36.29 34.93C36.383 35.0237 36.4936 35.0981 36.6154 35.1489C36.7373 35.1997 36.868 35.2258 37 35.2258C37.132 35.2258 37.2627 35.1997 37.3846 35.1489C37.5064 35.0981 37.617 35.0237 37.71 34.93L42.06 30.57C42.4319 30.1985 42.7269 29.7574 42.9282 29.2718C43.1295 28.7862 43.2331 28.2657 43.2331 27.74C43.2331 27.2143 43.1295 26.6938 42.9282 26.2082C42.7269 25.7226 42.4319 25.2815 42.06 24.91C41.96 24.81 41.99 25.59 41.99 15.98C41.9892 15.7042 42.0455 15.4313 42.1552 15.1783C42.265 14.9254 42.4259 14.6978 42.6278 14.51C42.8297 14.3222 43.0683 14.1781 43.3285 14.0869C43.5887 13.9957 43.865 13.9593 44.14 13.98C44.6684 14.0448 45.153 14.3061 45.4976 14.7118C45.8422 15.1176 46.0215 15.6381 46 16.17V31.5Z" fill="#424242"/>
<path d="M21 5L19 8H20V11H22V8H23L21 5Z" fill="#FC6459"/>
<path d="M27 11L29 8H28V5H26V8H25L27 11Z" fill="#FC6459"/>
<path d="M31 13H17C16.7348 13 16.4804 13.1054 16.2929 13.2929C16.1054 13.4804 16 13.7348 16 14V18C16 18.2652 16.1054 18.5196 16.2929 18.7071C16.4804 18.8946 16.7348 19 17 19H31C31.2652 19 31.5196 18.8946 31.7071 18.7071C31.8946 18.5196 32 18.2652 32 18V14C32 13.7348 31.8946 13.4804 31.7071 13.2929C31.5196 13.1054 31.2652 13 31 13ZM19 17C18.8022 17 18.6089 16.9414 18.4444 16.8315C18.28 16.7216 18.1518 16.5654 18.0761 16.3827C18.0004 16.2 17.9806 15.9989 18.0192 15.8049C18.0578 15.6109 18.153 15.4327 18.2929 15.2929C18.4327 15.153 18.6109 15.0578 18.8049 15.0192C18.9989 14.9806 19.2 15.0004 19.3827 15.0761C19.5654 15.1518 19.7216 15.28 19.8315 15.4444C19.9414 15.6089 20 15.8022 20 16C20 16.2652 19.8946 16.5196 19.7071 16.7071C19.5196 16.8946 19.2652 17 19 17ZM22 17C21.8022 17 21.6089 16.9414 21.4444 16.8315C21.28 16.7216 21.1518 16.5654 21.0761 16.3827C21.0004 16.2 20.9806 15.9989 21.0192 15.8049C21.0578 15.6109 21.153 15.4327 21.2929 15.2929C21.4327 15.153 21.6109 15.0578 21.8049 15.0192C21.9989 14.9806 22.2 15.0004 22.3827 15.0761C22.5654 15.1518 22.7216 15.28 22.8315 15.4444C22.9414 15.6089 23 15.8022 23 16C23 16.2652 22.8946 16.5196 22.7071 16.7071C22.5196 16.8946 22.2652 17 22 17ZM29 17H27C26.7348 17 26.4804 16.8946 26.2929 16.7071C26.1054 16.5196 26 16.2652 26 16C26 15.7348 26.1054 15.4804 26.2929 15.2929C26.4804 15.1054 26.7348 15 27 15H29C29.2652 15 29.5196 15.1054 29.7071 15.2929C29.8946 15.4804 30 15.7348 30 16C30 16.2652 29.8946 16.5196 29.7071 16.7071C29.5196 16.8946 29.2652 17 29 17Z" fill="#BFBFBF"/>
<path d="M31 21H17C16.7348 21 16.4804 21.1054 16.2929 21.2929C16.1054 21.4804 16 21.7348 16 22V26C16 26.2652 16.1054 26.5196 16.2929 26.7071C16.4804 26.8946 16.7348 27 17 27H31C31.2652 27 31.5196 26.8946 31.7071 26.7071C31.8946 26.5196 32 26.2652 32 26V22C32 21.7348 31.8946 21.4804 31.7071 21.2929C31.5196 21.1054 31.2652 21 31 21ZM19 25C18.8022 25 18.6089 24.9414 18.4444 24.8315C18.28 24.7216 18.1518 24.5654 18.0761 24.3827C18.0004 24.2 17.9806 23.9989 18.0192 23.8049C18.0578 23.6109 18.153 23.4327 18.2929 23.2929C18.4327 23.153 18.6109 23.0578 18.8049 23.0192C18.9989 22.9806 19.2 23.0004 19.3827 23.0761C19.5654 23.1518 19.7216 23.28 19.8315 23.4444C19.9414 23.6089 20 23.8022 20 24C20 24.2652 19.8946 24.5196 19.7071 24.7071C19.5196 24.8946 19.2652 25 19 25ZM22 25C21.8022 25 21.6089 24.9414 21.4444 24.8315C21.28 24.7216 21.1518 24.5654 21.0761 24.3827C21.0004 24.2 20.9806 23.9989 21.0192 23.8049C21.0578 23.6109 21.153 23.4327 21.2929 23.2929C21.4327 23.153 21.6109 23.0578 21.8049 23.0192C21.9989 22.9806 22.2 23.0004 22.3827 23.0761C22.5654 23.1518 22.7216 23.28 22.8315 23.4444C22.9414 23.6089 23 23.8022 23 24C23 24.2652 22.8946 24.5196 22.7071 24.7071C22.5196 24.8946 22.2652 25 22 25ZM29 25H27C26.7348 25 26.4804 24.8946 26.2929 24.7071C26.1054 24.5196 26 24.2652 26 24C26 23.7348 26.1054 23.4804 26.2929 23.2929C26.4804 23.1054 26.7348 23 27 23H29C29.2652 23 29.5196 23.1054 29.7071 23.2929C29.8946 23.4804 30 23.7348 30 24C30 24.2652 29.8946 24.5196 29.7071 24.7071C29.5196 24.8946 29.2652 25 29 25Z" fill="#BFBFBF"/>
</g>
<defs>
<clipPath id="clip0">
<rect width="48" height="48" fill="white"/>
</clipPath>
</defs>
</svg>
